<svg width="61" height="75" viewBox="0 0 61 75" fill="none" xmlns="http://www.w3.org/2000/svg">
<path d="M28.3492 73.8939C28.9772 74.3411 29.729 74.5814 30.5 74.5814C31.271 74.5814 32.0228 74.3411 32.6508 73.8939C33.7782 73.0966 60.2742 53.9653 60.1667 30.0837C60.1667 13.7262 46.8575 0.416992 30.5 0.416992C14.1425 0.416992 0.833334 13.7262 0.833334 30.0651C0.725793 53.9653 27.2218 73.0966 28.3492 73.8939ZM30.5 7.83366C42.7709 7.83366 52.75 17.8128 52.75 30.1022C52.8279 46.5598 36.4778 61.3375 30.5 66.1843C24.5259 61.3338 8.17212 46.5524 8.25 30.0837C8.25 17.8128 18.2291 7.83366 30.5 7.83366Z" fill="black"/>
</svg>
