<svg width="42" height="42" viewBox="0 0 42 42" fill="none" xmlns="http://www.w3.org/2000/svg">
<path d="M8.75 35.8746C7.12555 35.8746 5.56763 35.2293 4.41897 34.0806C3.27031 32.932 2.625 31.3741 2.625 29.7496C2.625 28.1252 3.27031 26.5672 4.41897 25.4186C5.56763 24.2699 7.12555 23.6246 8.75 23.6246C10.3745 23.6246 11.9324 24.2699 13.081 25.4186C14.2297 26.5672 14.875 28.1252 14.875 29.7496C14.875 31.3741 14.2297 32.932 13.081 34.0806C11.9324 35.2293 10.3745 35.8746 8.75 35.8746ZM8.75 20.9996C6.42936 20.9996 4.20376 21.9215 2.56282 23.5624C0.921872 25.2034 0 27.429 0 29.7496C0 32.0703 0.921872 34.2958 2.56282 35.9368C4.20376 37.5777 6.42936 38.4996 8.75 38.4996C11.0706 38.4996 13.2962 37.5777 14.9372 35.9368C16.5781 34.2958 17.5 32.0703 17.5 29.7496C17.5 27.429 16.5781 25.2034 14.9372 23.5624C13.2962 21.9215 11.0706 20.9996 8.75 20.9996ZM25.9 17.4996H33.25V14.3496H27.65L24.255 8.62711C23.7475 7.75211 22.75 7.17461 21.7 7.17461C20.8775 7.17461 20.125 7.50711 19.6 8.04961L13.125 14.5071C12.5825 15.0496 12.25 15.7496 12.25 16.6246C12.25 17.7271 12.8275 18.6546 13.7375 19.1971L19.6 22.7496V31.4996H22.75V20.1246L18.8125 17.2371L22.8725 13.1246M33.25 35.8746C31.6255 35.8746 30.0676 35.2293 28.919 34.0806C27.7703 32.932 27.125 31.3741 27.125 29.7496C27.125 28.1252 27.7703 26.5672 28.919 25.4186C30.0676 24.2699 31.6255 23.6246 33.25 23.6246C34.8745 23.6246 36.4324 24.2699 37.581 25.4186C38.7297 26.5672 39.375 28.1252 39.375 29.7496C39.375 31.3741 38.7297 32.932 37.581 34.0806C36.4324 35.2293 34.8745 35.8746 33.25 35.8746ZM33.25 20.9996C30.9294 20.9996 28.7038 21.9215 27.0628 23.5624C25.4219 25.2034 24.5 27.429 24.5 29.7496C24.5 32.0703 25.4219 34.2958 27.0628 35.9368C28.7038 37.5777 30.9294 38.4996 33.25 38.4996C34.3991 38.4996 35.5369 38.2733 36.5985 37.8336C37.6601 37.3938 38.6247 36.7493 39.4372 35.9368C40.2497 35.1243 40.8942 34.1597 41.3339 33.0981C41.7737 32.0365 42 30.8987 42 29.7496C42 28.6005 41.7737 27.4627 41.3339 26.4011C40.8942 25.3395 40.2497 24.3749 39.4372 23.5624C38.6247 22.7499 37.6601 22.1054 36.5985 21.6657C35.5369 21.2259 34.3991 20.9996 33.25 20.9996ZM28 8.39961C29.75 8.39961 31.15 6.99961 31.15 5.24961C31.15 3.49961 29.75 2.09961 28 2.09961C26.25 2.09961 24.85 3.49961 24.85 5.24961C24.85 6.99961 26.25 8.39961 28 8.39961Z" fill="black"/>
</svg>
