<svg width="67" height="67" viewBox="0 0 67 67" fill="none" xmlns="http://www.w3.org/2000/svg">
<path d="M13.5492 29.0129C18.8892 39.5075 27.4925 48.0737 37.9871 53.4508L46.1454 45.2925C47.1467 44.2913 48.63 43.9575 49.9279 44.4025C54.0812 45.7746 58.5683 46.5162 63.1667 46.5162C65.2062 46.5162 66.875 48.185 66.875 50.2246V63.1667C66.875 65.2062 65.2062 66.875 63.1667 66.875C28.3454 66.875 0.125 38.6546 0.125 3.83333C0.125 1.79375 1.79375 0.125 3.83333 0.125H16.8125C18.8521 0.125 20.5208 1.79375 20.5208 3.83333C20.5208 8.46875 21.2625 12.9188 22.6346 17.0721C23.0425 18.37 22.7458 19.8163 21.7075 20.8546L13.5492 29.0129Z" fill="black"/>
</svg>
