<svg width="20" height="20" viewBox="0 0 20 20" fill="none" xmlns="http://www.w3.org/2000/svg">
  <path
    d="M10.9959 13.9961H9.00391V7.99609H10.9959V13.9961ZM10.9959 7.00009H9.00391V4.99609H10.9959V7.00009ZM9.99991 0.00409358C11.3599 0.00409358 12.6559 0.264094 13.8879 0.784094C15.0879 1.28809 16.1499 2.00209 17.0739 2.92609C17.9979 3.85009 18.7119 4.91209 19.2159 6.11209C19.7359 7.34409 19.9959 8.64009 19.9959 10.0001C19.9959 11.3601 19.7359 12.6561 19.2159 13.8881C18.7119 15.0881 17.9979 16.1501 17.0739 17.0741C16.1499 17.9981 15.0879 18.7121 13.8879 19.2161C12.6559 19.7361 11.3599 19.9961 9.99991 19.9961C8.63991 19.9961 7.34391 19.7361 6.11191 19.2161C4.91191 18.7121 3.84991 17.9981 2.92591 17.0741C2.00191 16.1501 1.28791 15.0881 0.783906 13.8881C0.263906 12.6561 0.00390625 11.3601 0.00390625 10.0001C0.00390625 8.64009 0.263906 7.34409 0.783906 6.11209C1.28791 4.91209 2.00191 3.85009 2.92591 2.92609C3.84991 2.00209 4.91191 1.28809 6.11191 0.784094C7.34391 0.264094 8.63991 0.00409358 9.99991 0.00409358ZM9.99991 1.99609C8.91191 1.99609 7.87591 2.20809 6.89191 2.63209C5.93191 3.03209 5.08191 3.60209 4.34191 4.34209C3.60191 5.08209 3.03191 5.93209 2.63191 6.89209C2.20791 7.87609 1.99591 8.91209 1.99591 10.0001C1.99591 11.0881 2.20791 12.1241 2.63191 13.1081C3.03191 14.0681 3.60191 14.9181 4.34191 15.6581C5.08191 16.3981 5.93191 16.9681 6.89191 17.3681C7.87591 17.7921 8.91191 18.0041 9.99991 18.0041C11.0879 18.0041 12.1239 17.7921 13.1079 17.3681C14.0679 16.9681 14.9179 16.3981 15.6579 15.6581C16.3979 14.9181 16.9679 14.0681 17.3679 13.1081C17.7919 12.1241 18.0039 11.0881 18.0039 10.0001C18.0039 8.91209 17.7919 7.87609 17.3679 6.89209C16.9679 5.93209 16.3979 5.08209 15.6579 4.34209C14.9179 3.60209 14.0679 3.03209 13.1079 2.63209C12.1239 2.20809 11.0879 1.99609 9.99991 1.99609Z"
    fill="#63687A" />
</svg>