<svg width="38" height="38" viewBox="0 0 38 38" fill="none" xmlns="http://www.w3.org/2000/svg">
<path d="M8.93438 0.740234L4.38902 1.87555L0.837891 10.1648L3.56871 11.9859L5.82129 7.48238L7.21992 7.88434L5.98371 20.1972H18.1137L18.8684 12.9867L18.9422 12.3222H19.3113L18.8684 7.88434L20.2711 7.48238L22.5187 11.9859L25.2504 10.1648L21.6984 1.87555L17.1539 0.740234C16.7027 1.0577 16.1531 1.24965 15.5543 1.39238C14.7832 1.57367 13.9137 1.65816 13.0441 1.65816C12.1746 1.65816 11.3051 1.57367 10.534 1.39238C9.93516 1.24965 9.38555 1.05852 8.93438 0.740234ZM20.2711 13.7988L20.148 14.9472H34.8152L34.6922 13.7988H20.2711ZM19.9922 16.4238L17.802 37.2597H22.9453L26.7598 19.4671H28.2035L32.018 37.2597H37.1613L34.9711 16.4238H19.9922Z" fill="black"/>
</svg>
