<svg width="25" height="24" viewBox="0 0 25 24" fill="none" xmlns="http://www.w3.org/2000/svg">
<path d="M8.49843 2.3999C5.41123 2.3999 2.89999 4.91347 2.89999 8.00146V16.0015C2.89999 19.0887 5.41356 21.5999 8.50156 21.5999H16.5016C19.5888 21.5999 22.1 19.0863 22.1 15.9983V7.99834C22.1 4.91114 19.5864 2.3999 16.4984 2.3999H8.49843ZM18.1 5.5999C18.5416 5.5999 18.9 5.9583 18.9 6.3999C18.9 6.8415 18.5416 7.1999 18.1 7.1999C17.6584 7.1999 17.3 6.8415 17.3 6.3999C17.3 5.9583 17.6584 5.5999 18.1 5.5999ZM12.5 7.1999C15.1472 7.1999 17.3 9.3527 17.3 11.9999C17.3 14.6471 15.1472 16.7999 12.5 16.7999C9.85279 16.7999 7.69999 14.6471 7.69999 11.9999C7.69999 9.3527 9.85279 7.1999 12.5 7.1999ZM12.5 8.7999C11.6513 8.7999 10.8374 9.13704 10.2373 9.73716C9.63714 10.3373 9.29999 11.1512 9.29999 11.9999C9.29999 12.8486 9.63714 13.6625 10.2373 14.2626C10.8374 14.8628 11.6513 15.1999 12.5 15.1999C13.3487 15.1999 14.1626 14.8628 14.7627 14.2626C15.3629 13.6625 15.7 12.8486 15.7 11.9999C15.7 11.1512 15.3629 10.3373 14.7627 9.73716C14.1626 9.13704 13.3487 8.7999 12.5 8.7999Z" fill="#333333"/>
</svg>
