<svg width="25" height="25" viewBox="0 0 25 25" fill="none" xmlns="http://www.w3.org/2000/svg">
<path d="M12.9532 24.2951C19.5807 24.2951 24.9533 18.9225 24.9533 12.295C24.9533 5.66754 19.5807 0.294922 12.9532 0.294922C6.32575 0.294922 0.953125 5.66754 0.953125 12.295C0.953125 18.9225 6.32575 24.2951 12.9532 24.2951Z" fill="#333333"/>
<path d="M20.3628 9.95376L21.8109 8.37837H18.5997C16.9921 7.28018 15.0505 6.64062 12.951 6.64062C10.8539 6.64062 8.91783 7.28162 7.31293 8.37837H4.09375L5.54169 9.95376C4.6541 10.7636 4.09771 11.9302 4.09771 13.2253C4.09771 15.6696 6.07936 17.6512 8.52363 17.6512C9.68483 17.6512 10.7425 17.2034 11.5322 16.4713L12.9508 18.0159L14.3694 16.4728C15.1591 17.2048 16.2157 17.6512 17.3767 17.6512C19.821 17.6512 21.8053 15.6696 21.8053 13.2253C21.8066 11.9288 21.2502 10.7623 20.3626 9.95376H20.3628ZM8.52489 16.2206C6.8703 16.2206 5.52963 14.8799 5.52963 13.2253C5.52963 11.5707 6.87048 10.2301 8.52489 10.2301C10.1795 10.2301 11.5201 11.5709 11.5201 13.2253C11.5201 14.8797 10.1793 16.2206 8.52489 16.2206ZM12.9522 13.1382C12.9522 11.1672 11.5189 9.47513 9.62705 8.75242C10.6502 8.32473 11.7723 8.08749 12.951 8.08749C14.1295 8.08749 15.253 8.32473 16.2762 8.75242C14.3858 9.47657 12.9524 11.1672 12.9524 13.1382H12.9522ZM17.3782 16.2206C15.7236 16.2206 14.3829 14.8799 14.3829 13.2253C14.3829 11.5707 15.7238 10.2301 17.3782 10.2301C19.0328 10.2301 20.3734 11.5709 20.3734 13.2253C20.3734 14.8797 19.0326 16.2206 17.3782 16.2206ZM17.3782 11.6539C16.5105 11.6539 15.808 12.3564 15.808 13.2241C15.808 14.0915 16.5105 14.794 17.3782 14.794C18.2456 14.794 18.9481 14.0915 18.9481 13.2241C18.9481 12.3579 18.2456 11.6539 17.3782 11.6539ZM10.0951 13.2253C10.0951 14.0928 9.3925 14.7953 8.52489 14.7953C7.65745 14.7953 6.9549 14.0928 6.9549 13.2253C6.9549 12.3577 7.65745 11.6552 8.52489 11.6552C9.39232 11.6539 10.0951 12.3577 10.0951 13.2253Z" fill="white"/>
</svg>
