<svg width="25" height="24" viewBox="0 0 25 24" fill="none" xmlns="http://www.w3.org/2000/svg">
<path d="M12.5 3.2002C9.15121 3.2002 4.80469 4.03926 4.80469 4.03926L4.79376 4.05176C3.26854 4.29569 2.10001 5.6063 2.10001 7.2002V12.0002V12.0018V16.8002V16.8018C2.10149 17.563 2.3743 18.2988 2.86944 18.8769C3.36459 19.4551 4.04963 19.8379 4.80157 19.9564L4.80469 19.9611C4.80469 19.9611 9.15121 20.8018 12.5 20.8018C15.8488 20.8018 20.1953 19.9611 20.1953 19.9611L20.1969 19.9596C20.9496 19.8413 21.6355 19.4582 22.131 18.8793C22.6265 18.3005 22.8992 17.5638 22.9 16.8018V16.8002V12.0018V12.0002V7.2002C22.8989 6.4387 22.6262 5.70256 22.1311 5.12404C21.6359 4.54553 20.9506 4.16256 20.1984 4.04395L20.1953 4.03926C20.1953 4.03926 15.8488 3.2002 12.5 3.2002ZM10.1 8.31895L16.5 12.0002L10.1 15.6814V8.31895Z" fill="#333333"/>
</svg>
