<svg width="12" height="11" viewBox="0 0 12 11" fill="none" xmlns="http://www.w3.org/2000/svg">
<path fill-rule="evenodd" clip-rule="evenodd" d="M0.519531 1.54688C0.519531 1.13662 0.682571 0.743165 0.972784 0.453069C1.263 0.162974 1.65661 0 2.06703 0H8.64391C9.05433 0 9.44794 0.162974 9.73815 0.453069C10.0284 0.743165 10.1914 1.13662 10.1914 1.54688V4.05178C9.88825 3.7716 9.53932 3.5454 9.15974 3.38302V2.90039H1.5512V6.1875C1.5512 6.32425 1.60554 6.4554 1.70228 6.5521C1.79902 6.6488 1.93022 6.70312 2.06703 6.70312H4.13036C4.13036 7.06148 4.18246 7.40747 4.27996 7.73438H2.06703C1.65661 7.73438 1.263 7.5714 0.972784 7.28131C0.682571 6.99121 0.519531 6.59776 0.519531 6.1875V1.54688ZM2.06703 1.03125H8.64391C8.78071 1.03125 8.91192 1.08557 9.00866 1.18227C9.10539 1.27897 9.15974 1.41012 9.15974 1.54688V1.86914H1.5512V1.54688C1.5512 1.41012 1.60554 1.27897 1.70228 1.18227C1.79902 1.08557 1.93022 1.03125 2.06703 1.03125Z" fill="#1A2B49"/>
<path fill-rule="evenodd" clip-rule="evenodd" d="M4.85645 6.82749C4.85645 6.1207 5.13733 5.44286 5.6373 4.94309C6.13728 4.44332 6.81539 4.16255 7.52246 4.16255C8.22953 4.16255 8.90764 4.44332 9.40762 4.94309C9.90759 5.44286 10.1885 6.1207 10.1885 6.82749C10.1885 7.53427 9.90759 8.21211 9.40762 8.71188C8.90764 9.21166 8.22953 9.49243 7.52246 9.49243C6.81539 9.49243 6.13728 9.21166 5.6373 8.71188C5.13733 8.21211 4.85645 7.53427 4.85645 6.82749ZM7.52246 2.83008C6.46185 2.83008 5.44469 3.25123 4.69472 4.00089C3.94476 4.75055 3.52344 5.76731 3.52344 6.82749C3.52344 7.88767 3.94476 8.90442 4.69472 9.65408C5.44469 10.4037 6.46185 10.8249 7.52246 10.8249C8.58307 10.8249 9.60024 10.4037 10.3502 9.65408C11.1002 8.90442 11.5215 7.88767 11.5215 6.82749C11.5215 5.76731 11.1002 4.75055 10.3502 4.00089C9.60024 3.25123 8.58307 2.83008 7.52246 2.83008ZM8.18896 6.55167V4.82878H6.85596V7.10331L8.38425 8.63098L9.32669 7.68893L8.18896 6.55167Z" fill="#0071EB"/>
</svg>
